<svg width="747" height="247" viewBox="0 0 747 247" fill="none" xmlns="http://www.w3.org/2000/svg">
<g opacity="0.4">
<path opacity="0.1" d="M745 50.4485V244.704H2.00003V93.0441L17.4842 74.2769H49.1657L62.2722 87.4602H74.2939V109.96H93.4187V96.2391H107.625V106.123H148.059L159.531 115.454V129.175H189.043L208.703 149.928V148.554L272.407 97.2394H297.179L319.068 133.564V110.677H352.949V89.1025H371.271L381.435 39.5047H396.147L397.648 1L399.981 39.5047H413.384L423.534 89.1025H444.189V104.466H532.695V98.9862H550.185V85.2506H602.537V46.4024H684.52V31.4425H682.35V25.5899H704.462V31.4425H700.732V41.789L745 50.4485Z" stroke="#333333" stroke-width="2.77387"/>
<path d="M397.867 104.878C419.875 126.822 422.684 151.505 420.244 163.639C417.661 176.509 402.592 185.512 387.107 184.658C373.36 183.899 357.839 176.936 359.136 154.637C360.422 132.337 372.051 112.6 379.799 104.878C387.167 97.5359 390.987 98.0103 397.879 104.878H397.867Z" stroke="#333333" stroke-width="2.77387"/>
<path opacity="0.6" d="M403.687 111.271C420.363 131.46 422.446 152.668 420.244 163.64C417.661 176.509 402.592 185.512 387.107 184.658C374.443 183.958 360.291 177.992 359.136 159.63C387.607 188.513 418.803 156.499 403.687 111.271Z" stroke="#333333" stroke-width="2.77387"/>
<path d="M389.547 148.042L391.785 193.388H388.131L389.547 148.042Z" stroke="#333333" stroke-width="2.77387"/>
<path d="M401.533 165.454L390.154 181.443L389.75 177.802L401.533 165.454Z" stroke="#333333" stroke-width="2.77387"/>
<path d="M389.75 169.356V172.132L378.169 163.022L389.75 169.356Z" stroke="#333333" stroke-width="2.77387"/>
<path d="M379.668 193.554H393.142C393.142 191.62 390.13 190.055 386.405 190.055C382.679 190.055 379.668 191.62 379.668 193.554Z" stroke="#333333" stroke-width="2.77387"/>
<path d="M386.321 193.554H403.104C403.104 191.146 399.342 189.201 394.712 189.201C390.082 189.201 386.321 191.146 386.321 193.554Z" stroke="#333333" stroke-width="2.77387"/>
<path opacity="0.1" d="M745 50.0465V242.723H2.00003V92.2957L17.4842 73.6812H49.1657L62.2722 86.7573H74.2939V109.074H93.4187V95.4648H107.625V105.268H148.059L159.531 114.524V128.133H189.043L208.703 148.717V147.355L272.407 96.457H297.179L319.068 132.487V109.785H352.949V88.3862H371.271L381.435 39.1917H396.147L397.648 1L399.981 39.1917H413.384L423.534 88.3862H444.189V103.624H532.695V98.1896H550.185V84.5656H602.537V46.0333H684.52V31.195H682.35V25.39H704.462V31.195H700.732V41.4574L745 50.0465Z" stroke="#333333" stroke-width="2.77387"/>
<path d="M681.479 72.4427C706.137 97.3812 709.271 125.431 706.54 139.223C703.646 153.849 686.779 164.084 669.423 163.105C654.022 162.243 636.647 154.334 638.094 128.978C639.541 103.633 652.556 81.2046 661.229 72.433C669.48 64.0879 673.764 64.6306 681.469 72.433L681.479 72.4427Z" stroke="#333333" stroke-width="2.77387"/>
<path opacity="0.6" d="M688.006 79.7119C706.684 102.644 709.003 126.759 706.54 139.223C703.646 153.849 686.779 164.084 669.423 163.105C655.24 162.31 639.398 155.526 638.104 134.668C669.989 167.486 704.93 131.111 688.006 79.7119Z" stroke="#333333" stroke-width="2.77387"/>
<path d="M672.165 121.496L674.666 191.911H670.574L672.165 121.496Z" stroke="#333333" stroke-width="2.77387"/>
<path d="M685.591 141.277L672.845 159.46L672.394 155.322L685.591 141.277Z" stroke="#333333" stroke-width="2.77387"/>
<path d="M672.395 145.717V148.877L659.428 138.516L672.395 145.717Z" stroke="#333333" stroke-width="2.77387"/>
<path d="M656.61 193.189H675.154C675.154 190.494 671.005 188.304 665.887 188.304C660.769 188.304 656.62 190.494 656.62 193.189H656.61Z" stroke="#333333" stroke-width="2.77387"/>
<path d="M665.762 193.189H688.878C688.878 189.826 683.703 187.103 677.32 187.103C670.937 187.103 665.762 189.826 665.762 193.189V193.189Z" stroke="#333333" stroke-width="2.77387"/>
<path d="M475.858 50.5077C490.66 83.0215 492.541 119.597 490.903 137.592C489.167 156.659 479.044 170.007 468.633 168.737C459.391 167.611 448.963 157.299 449.835 124.245C450.699 91.1905 458.51 61.9551 463.72 50.5077C468.669 39.6277 471.242 40.3393 475.867 50.5077H475.858Z" stroke="#333333" stroke-width="2.77387"/>
<path opacity="0.6" d="M479.782 59.9814C490.985 89.8833 492.379 121.325 490.904 137.591C489.167 156.658 479.044 170.006 468.633 168.736C460.121 167.7 450.618 158.856 449.845 131.647C468.966 174.446 489.932 127 479.782 59.9814Z" stroke="#333333" stroke-width="2.77387"/>
<path d="M470.019 131.483L472.764 194.548H468.265L470.019 131.483Z" stroke="#333333" stroke-width="2.77387"/>
<path d="M477.938 156.35L470.766 165.491L470.271 161.781L477.938 156.35Z" stroke="#333333" stroke-width="2.77387"/>
<path d="M470.271 153.18V156.008L462.136 147.434L470.271 153.18Z" stroke="#333333" stroke-width="2.77387"/>
<path d="M462.118 195.171H472.304C472.304 193.964 470.027 192.982 467.211 192.982C464.394 192.982 462.118 193.964 462.118 195.171Z" stroke="#333333" stroke-width="2.77387"/>
<path d="M467.139 195.172H479.836C479.836 193.668 476.992 192.452 473.492 192.452C469.992 192.452 467.148 193.668 467.148 195.172H467.139Z" stroke="#333333" stroke-width="2.77387"/>
<path d="M311.143 76.706C322.42 102.886 323.853 132.337 322.606 146.826C321.282 162.179 313.57 172.926 305.637 171.904C298.597 170.997 290.651 162.694 291.316 136.079C291.974 109.464 297.925 85.9233 301.894 76.706C305.665 67.9455 307.626 68.5184 311.15 76.706H311.143Z" stroke="#333333" stroke-width="2.77387"/>
<path opacity="0.6" d="M314.132 84.335C322.667 108.412 323.73 133.729 322.605 146.826C321.282 162.179 313.569 172.926 305.637 171.904C299.152 171.07 291.912 163.948 291.322 142.04C305.891 176.501 321.865 138.298 314.132 84.335Z" stroke="#333333" stroke-width="2.77387"/>
<path d="M306.693 141.907L308.784 192.686H305.356L306.693 141.907Z" stroke="#333333" stroke-width="2.77387"/>
<path d="M312.727 161.929L307.262 169.29L306.885 166.302L312.727 161.929Z" stroke="#333333" stroke-width="2.77387"/>
<path d="M306.886 159.377V161.654L300.688 154.75L306.886 159.377Z" stroke="#333333" stroke-width="2.77387"/>
<path d="M300.674 193.189H308.435C308.435 192.217 306.7 191.427 304.554 191.427C302.408 191.427 300.674 192.217 300.674 193.189Z" stroke="#333333" stroke-width="2.77387"/>
<path d="M304.499 193.189H314.173C314.173 191.978 312.006 190.999 309.339 190.999C306.673 190.999 304.506 191.978 304.506 193.189H304.499Z" stroke="#333333" stroke-width="2.77387"/>
<path d="M168.012 44.7685C183.519 78.1268 185.489 115.653 183.774 134.115C181.954 153.677 171.349 167.372 160.443 166.069C150.761 164.914 139.836 154.333 140.75 120.421C141.655 86.5079 149.837 56.5132 155.296 44.7685C160.48 33.6059 163.176 34.3359 168.022 44.7685H168.012Z" stroke="#333333" stroke-width="2.77387"/>
<path opacity="0.6" d="M172.123 54.4893C183.859 85.1678 185.32 117.427 183.774 134.115C181.955 153.677 171.35 167.372 160.443 166.069C151.525 165.006 141.571 155.932 140.76 128.016C160.792 171.927 182.756 123.248 172.123 54.4893Z" stroke="#333333" stroke-width="2.77387"/>
<path d="M161.894 127.846L164.77 192.548H160.056L161.894 127.846Z" stroke="#333333" stroke-width="2.77387"/>
<path d="M170.189 153.357L162.676 162.737L162.158 158.929L170.189 153.357Z" stroke="#333333" stroke-width="2.77387"/>
<path d="M162.158 150.105V153.007L153.636 144.21L162.158 150.105Z" stroke="#333333" stroke-width="2.77387"/>
<path d="M153.618 193.189H164.289C164.289 191.951 161.904 190.943 158.954 190.943C156.003 190.943 153.618 191.951 153.618 193.189Z" stroke="#333333" stroke-width="2.77387"/>
<path d="M158.878 193.188H172.179C172.179 191.645 169.2 190.397 165.533 190.397C161.866 190.397 158.887 191.645 158.887 193.188H158.878Z" stroke="#333333" stroke-width="2.77387"/>
<path opacity="0.2" d="M76.3888 240.839H321.37C323.352 240.839 324.958 239.002 324.958 236.729C324.958 234.462 323.352 232.618 321.37 232.618H76.3888C74.406 232.618 72.8008 234.456 72.8008 236.729C72.8008 238.995 74.406 240.839 76.3888 240.839Z" stroke="#333333" stroke-width="2.77387"/>
<path d="M113.938 192.795H106.749C94.5673 192.795 84.6953 202.611 84.6953 214.724C84.6953 226.837 94.5673 236.653 106.749 236.653H113.938C126.12 236.653 135.992 226.837 135.992 214.724C135.992 202.611 126.12 192.795 113.938 192.795Z" stroke="#333333" stroke-width="2.77387"/>
<path d="M260.599 214.724C260.599 202.687 250.841 192.927 238.767 192.808V192.795H230.768V192.808C230.692 192.808 230.623 192.795 230.547 192.795C218.365 192.795 208.493 202.611 208.493 214.724C208.493 226.837 218.365 236.653 230.547 236.653C230.623 236.653 230.692 236.64 230.768 236.64V236.653H238.767V236.64C250.841 236.521 260.599 226.761 260.599 214.724Z" stroke="#333333" stroke-width="2.77387"/>
<path d="M173.84 214.724C173.84 208.507 171.226 202.907 167.05 198.917V192.795H151.786C139.604 192.795 129.732 202.611 129.732 214.724C129.732 226.837 139.604 236.653 151.786 236.653H161.367V230.53C165.544 226.541 173.84 220.941 173.84 214.724V214.724Z" stroke="#333333" stroke-width="2.77387"/>
<path d="M297.645 214.724C297.645 208.614 295.126 203.096 291.076 199.119V192.795H275.812V192.808C275.736 192.808 275.667 192.795 275.591 192.795C263.409 192.795 253.537 202.611 253.537 214.724C253.537 226.837 263.409 236.653 275.591 236.653C275.667 236.653 275.736 236.64 275.812 236.64V236.653H286.406V230.329C290.462 226.352 297.645 220.834 297.645 214.724V214.724Z" stroke="#333333" stroke-width="2.77387"/>
<path d="M204.076 140.604H175.276V150.602H204.076V140.604Z" stroke="#333333" stroke-width="2.77387"/>
<path d="M309.991 220.587V200.829C309.991 196.411 308.175 192.183 304.966 189.131C295.316 179.944 282.59 174.627 269.237 174.193L265.466 174.023C251.443 173.57 237.831 169.234 226.149 161.507L219.321 156.989C203.165 146.305 194.679 140.598 175.276 140.598C156.779 140.598 138.687 146.003 123.252 156.146L113.672 162.439C106.521 167.139 98.0916 169.549 89.5232 169.341C85.0112 169.234 80.8599 171.802 78.9678 175.879L74.9241 184.594C72.1334 190.603 71.7284 197.443 73.7977 203.742L76.9554 213.35C79.3855 220.757 86.3338 225.772 94.1744 225.772L304.821 225.734C307.681 225.734 310.004 223.425 310.004 220.58L309.991 220.587Z" stroke="#333333" stroke-width="2.77387"/>
<path d="M319.87 220.587V203.61C319.87 187.627 307.106 174.526 291.039 174.023C277.015 173.57 277.123 169.234 265.441 161.507L258.613 156.989C242.457 146.305 223.479 140.598 204.077 140.598C185.579 140.598 177.979 146.003 162.545 156.146L152.964 162.439C145.813 167.139 137.384 169.549 128.815 169.341C124.303 169.234 120.152 171.802 118.26 175.879L114.216 184.594C111.426 190.603 111.021 197.443 113.084 203.742L116.241 213.35C118.671 220.757 125.62 225.772 133.46 225.772L314.687 225.734C317.547 225.734 319.87 223.425 319.87 220.58V220.587Z" stroke="#333333" stroke-width="2.77387"/>
<path d="M315.965 187.299C314.731 185.531 312.567 182.945 309.852 180.988L291.994 179.377L308.504 188.734L317.395 189.803C317.231 189.634 316.098 187.488 315.965 187.293V187.299Z" stroke="#333333" stroke-width="2.77387"/>
<path d="M291.994 179.383L296.411 183.448C299.734 186.506 303.992 188.368 308.504 188.74L298.626 180.012L291.994 179.383V179.383Z" stroke="#333333" stroke-width="2.77387"/>
<path d="M271.782 174.878L160.02 172.481C159.418 172.468 159.146 171.732 159.596 171.335L169.784 162.281C181.124 152.162 186.503 145.247 202.349 145.247H208.766C226.377 145.247 244.007 151.414 258.075 161.242L271.421 170.473C272.503 171.172 273.256 172.311 273.611 173.135C273.965 173.959 274.231 174.771 273.94 174.872C273.611 174.985 272.471 174.891 271.782 174.872V174.878Z" stroke="#333333" stroke-width="2.77387"/>
<path d="M270.13 173.123L165.822 170.87C165.234 170.858 164.955 170.14 165.386 169.738L173.22 162.401C183.611 152.673 189.161 147.268 203.304 147.268H209.031C224.75 147.268 240.102 152.119 253.044 161.174L270.123 173.123H270.13Z" stroke="#333333" stroke-width="2.77387"/>
<path d="M219.486 172.104L200.482 171.72L189.11 150.011C193.736 147.985 190.509 148.52 195.533 147.809L219.486 172.097V172.104Z" stroke="#333333" stroke-width="2.77387"/>
<path d="M231.142 172.342L206.411 147.267H209.037C220.688 147.267 232.129 149.935 242.539 155L260.22 172.927L231.135 172.342H231.142Z" stroke="#333333" stroke-width="2.77387"/>
<path d="M208.727 172.344L202.969 172.224V146.815H208.727V172.344Z" stroke="#333333" stroke-width="2.77387"/>
<path d="M128.189 184.474C127.195 185.512 125.822 186.097 124.385 186.097H113.608C113.805 185.594 113.994 185.084 114.222 184.593L117.81 176.866H135.466L128.189 184.474Z" stroke="#333333" stroke-width="2.77387"/>
<path d="M116.096 180.554L117.811 176.866H135.46L131.935 180.554H116.096Z" stroke="#333333" stroke-width="2.77387"/>
<path d="M299.404 231.141C308.523 223.113 309.371 209.254 301.297 200.186C293.223 191.118 279.285 190.275 270.165 198.304C261.046 206.332 260.198 220.191 268.272 229.259C276.346 238.326 290.284 239.169 299.404 231.141Z" stroke="#333333" stroke-width="2.77387"/>
<path d="M270.996 214.721C270.996 222.291 277.166 228.432 284.785 228.432C292.404 228.432 298.574 222.297 298.574 214.721C298.574 207.145 292.404 201.01 284.785 201.01C277.166 201.01 270.996 207.145 270.996 214.721Z" stroke="#333333" stroke-width="2.77387"/>
<path d="M272.61 214.72C272.61 221.409 278.059 226.826 284.786 226.826C291.513 226.826 296.961 221.409 296.961 214.72C296.961 208.031 291.513 202.613 284.786 202.613C278.059 202.613 272.61 208.031 272.61 214.72Z" stroke="#333333" stroke-width="2.77387"/>
<path d="M274.356 214.721C274.356 220.448 279.027 225.091 284.785 225.091C290.544 225.091 295.214 220.448 295.214 214.721C295.214 208.995 290.544 204.352 284.785 204.352C279.027 204.352 274.356 208.995 274.356 214.721Z" stroke="#333333" stroke-width="2.77387"/>
<path d="M280.464 214.721C280.464 217.093 282.4 219.018 284.786 219.018C287.172 219.018 289.108 217.093 289.108 214.721C289.108 212.348 287.172 210.423 284.786 210.423C282.4 210.423 280.464 212.348 280.464 214.721Z" stroke="#333333" stroke-width="2.77387"/>
<path d="M282.279 214.721C282.279 216.099 283.399 217.213 284.785 217.213C286.171 217.213 287.291 216.099 287.291 214.721C287.291 213.343 286.171 212.229 284.785 212.229C283.399 212.229 282.279 213.343 282.279 214.721Z" stroke="#333333" stroke-width="2.77387"/>
<path d="M166.004 236.08C177.863 233.318 185.226 221.52 182.449 209.728C179.672 197.936 167.807 190.615 155.947 193.377C144.088 196.138 136.726 207.936 139.503 219.728C142.28 231.52 154.145 238.841 166.004 236.08Z" stroke="#333333" stroke-width="2.77387"/>
<path d="M147.198 214.722C147.198 222.292 153.368 228.433 160.987 228.433C168.607 228.433 174.776 222.298 174.776 214.722C174.776 207.146 168.607 201.011 160.987 201.011C153.368 201.011 147.198 207.146 147.198 214.722Z" stroke="#333333" stroke-width="2.77387"/>
<path d="M148.806 214.723C148.806 221.412 154.254 226.829 160.981 226.829C167.708 226.829 173.157 221.412 173.157 214.723C173.157 208.034 167.708 202.616 160.981 202.616C154.254 202.616 148.806 208.034 148.806 214.723Z" stroke="#333333" stroke-width="2.77387"/>
<path d="M150.552 214.721C150.552 220.448 155.222 225.091 160.981 225.091C166.739 225.091 171.409 220.448 171.409 214.721C171.409 208.995 166.739 204.352 160.981 204.352C155.222 204.352 150.552 208.995 150.552 214.721Z" stroke="#333333" stroke-width="2.77387"/>
<path d="M156.659 214.721C156.659 217.093 158.596 219.018 160.981 219.018C163.367 219.018 165.303 217.093 165.303 214.721C165.303 212.348 163.367 210.423 160.981 210.423C158.596 210.423 156.659 212.348 156.659 214.721Z" stroke="#333333" stroke-width="2.77387"/>
<path d="M158.475 214.721C158.475 216.099 159.595 217.213 160.981 217.213C162.366 217.213 163.487 216.099 163.487 214.721C163.487 213.343 162.366 212.229 160.981 212.229C159.595 212.229 158.475 213.343 158.475 214.721Z" stroke="#333333" stroke-width="2.77387"/>
<path d="M210.101 184.702C210.101 187.2 212.138 189.219 214.644 189.219C217.15 189.219 219.188 187.193 219.188 184.702C219.188 182.21 217.15 180.184 214.644 180.184C212.138 180.184 210.101 182.21 210.101 184.702V184.702Z" stroke="#333333" stroke-width="2.77387"/>
<path d="M127.094 193.77C127.094 196.268 129.131 198.288 131.637 198.288C134.143 198.288 136.181 196.262 136.181 193.77C136.181 191.278 134.143 189.252 131.637 189.252C129.131 189.252 127.094 191.278 127.094 193.77V193.77Z" stroke="#333333" stroke-width="2.77387"/>
<path d="M128.562 193.984C128.562 195.67 129.941 197.042 131.637 197.042C133.333 197.042 134.713 195.67 134.713 193.984C134.713 192.298 133.333 190.926 131.637 190.926C129.941 190.926 128.562 192.298 128.562 193.984Z" stroke="#333333" stroke-width="2.77387"/>
<path d="M210.405 186.2H219.144C219.973 186.2 220.65 185.527 220.65 184.703C220.65 183.872 219.973 183.205 219.144 183.205H210.405C209.576 183.205 208.898 183.878 208.898 184.703C208.898 185.527 209.576 186.2 210.405 186.2Z" stroke="#333333" stroke-width="2.77387"/>
<path opacity="0.2" d="M210.423 184.877H218.935C219.238 184.877 219.479 184.632 219.479 184.336C219.479 184.034 219.232 183.795 218.935 183.795H210.423C210.119 183.795 209.879 184.04 209.879 184.336C209.879 184.638 210.126 184.877 210.423 184.877Z" stroke="#333333" stroke-width="2.77387"/>
<path d="M117.811 176.866H111.426L103.439 186.097H113.603L117.811 176.866Z" stroke="#333333" stroke-width="2.77387"/>
<path d="M116.096 180.556H108.236L103.439 186.099H113.603L116.096 180.556Z" stroke="#333333" stroke-width="2.77387"/>
<path d="M74.9244 184.593C74.6966 185.084 74.5067 185.594 74.3105 186.097H84.2838L82.3727 176.866H78.5125L74.9244 184.593V184.593Z" stroke="#333333" stroke-width="2.77387"/>
<path d="M74.9244 184.595C74.6966 185.086 74.5067 185.596 74.3105 186.099H84.2838L83.1384 180.556H76.8039L74.9244 184.595Z" stroke="#333333" stroke-width="2.77387"/>
<path d="M107.572 175.748C109.109 173.074 111.349 170.859 114.058 169.355H89.3717C86.8151 169.33 84.3914 170.173 82.4297 171.645C82.417 172.426 82.5309 173.212 82.7714 173.967L86.5683 186.099H101.636L107.578 175.748H107.572Z" stroke="#333333" stroke-width="2.77387"/>
<path d="M116.855 225.772L113.596 223.167C112.425 222.23 111.583 220.94 111.21 219.486L111.033 218.813C110.792 217.894 109.957 217.246 109.001 217.246H85.1505C83.7773 217.246 82.7711 218.536 83.1192 219.857C83.4419 221.072 84.0874 222.179 84.9923 223.06L85.5112 223.564C88.1058 224.967 91.0547 225.766 94.1492 225.766H116.855V225.772Z" stroke="#333333" stroke-width="2.77387"/>
<path d="M83.7837 200.501H99.2562C99.6616 200.501 99.9902 200.174 99.9902 199.771V192.51C99.9902 192.107 99.6616 191.78 99.2562 191.78H83.7837C83.3783 191.78 83.0497 192.107 83.0497 192.51V199.771C83.0497 200.174 83.3783 200.501 83.7837 200.501Z" stroke="#333333" stroke-width="2.77387"/>
<path d="M91.6057 179.504H96.8961C98.8705 179.504 100.465 177.912 100.465 175.955H88.0303C88.0303 177.918 89.6313 179.504 91.5994 179.504H91.6057Z" stroke="#333333" stroke-width="2.77387"/>
<path d="M149.971 145.607C149.135 145.607 148.306 145.727 147.509 145.979C143.706 147.181 139.308 148.879 135.46 150.887C127.094 155.254 119.988 160.181 116.722 162.515C116.159 162.918 116.45 163.792 117.14 163.792H146.06C146.996 163.792 147.908 163.503 148.661 162.956C151.54 160.879 159.248 155.417 165.266 152.082C168.727 150.163 172.841 148.319 176.555 146.797C177.182 146.539 176.998 145.607 176.321 145.607H149.977H149.971Z" stroke="#333333" stroke-width="2.77387"/>
<path d="M160.362 145.607L142.073 163.792H146.06C146.997 163.792 147.908 163.503 148.661 162.956C151.021 161.25 156.634 157.274 161.899 154.052L170.392 145.607H160.362Z" stroke="#333333" stroke-width="2.77387"/>
<path d="M154.21 145.607H149.971C149.135 145.607 148.306 145.727 147.509 145.979C143.706 147.181 139.308 148.879 135.46 150.887C133.998 151.648 132.581 152.428 131.214 153.209L120.563 163.799H135.916L154.204 145.614L154.21 145.607Z" stroke="#333333" stroke-width="2.77387"/>
<path d="M281.863 167.032H270.649L259.917 175.395C259.423 175.779 259.695 176.572 260.322 176.572H282.059C284.755 176.572 286.932 174.357 286.856 171.657C286.78 169.046 284.489 167.032 281.863 167.032V167.032Z" stroke="#333333" stroke-width="2.77387"/>
<path d="M282.065 167.032H277.705C280.357 167.032 282.502 169.165 282.502 171.802C282.502 174.438 280.357 176.572 277.705 176.572H282.065C284.717 176.572 286.862 174.438 286.862 171.802C286.862 169.165 284.717 167.032 282.065 167.032Z" stroke="#333333" stroke-width="2.77387"/>
<path d="M268.472 171.683C267.213 172.923 268.099 175.056 269.865 175.056H277.547C279.357 175.056 280.819 173.596 280.819 171.803C280.819 170.003 279.351 168.55 277.547 168.55H272.465C271.94 168.55 271.44 168.757 271.073 169.122L268.466 171.69L268.472 171.683Z" stroke="#333333" stroke-width="2.77387"/>
<path d="M499.377 147.868C496.692 147.682 486.03 147.829 485.615 147.776C485.199 147.724 482.497 143.025 482.034 143.521C481.571 144.017 483.54 145.852 482.919 146.315C482.739 146.449 481.649 146.014 480.774 145.957L481.183 150.823C482.391 150.705 483.421 150.183 485.436 150.762C486.546 151.081 495.037 152.217 502.215 152.916C509.573 153.629 515.609 153.9 515.609 153.9L516.214 148.252C516.214 148.252 502.346 148.074 499.379 147.868H499.377Z" stroke="#333333" stroke-width="2.77387"/>
<path d="M514.787 234.733C514.787 234.733 514.994 238.443 514.994 238.452C515.069 238.924 515.367 240.087 515.367 240.515C515.367 242.123 508.342 239.148 509.915 238.436C510.057 238.371 510.804 237.884 510.852 237.336C510.924 236.493 511.108 234.786 511.108 234.786L514.785 234.733H514.787Z" stroke="#333333" stroke-width="2.77387"/>
<path d="M509.934 238.421C509.934 238.421 511.584 238.913 512.428 239.037C513.273 239.16 514.387 238.123 514.985 238.404C515.642 238.713 515.576 241.745 515.576 241.745C515.576 241.745 506.771 242.273 504.284 241.458C503.298 241.135 506.562 239.569 509.934 238.423V238.421Z" stroke="#333333" stroke-width="2.77387"/>
<path d="M530.265 235.092C530.265 235.092 530.47 238.802 530.472 238.81C530.547 239.282 530.846 240.445 530.846 240.873C530.846 242.481 523.82 239.507 525.395 238.795C525.537 238.73 526.505 237.877 526.553 237.33C526.624 236.486 526.586 235.144 526.586 235.144L530.263 235.092H530.265Z" stroke="#333333" stroke-width="2.77387"/>
<path d="M525.412 238.777C525.412 238.777 527.062 239.27 527.906 239.393C528.751 239.516 529.865 238.481 530.463 238.76C531.12 239.069 531.147 241.84 531.147 241.84C531.147 241.84 521.733 242.534 519.52 241.882C518.526 241.589 522.04 239.923 525.412 238.777V238.777Z" stroke="#333333" stroke-width="2.77387"/>
<path d="M519.13 181.533L516.159 182.838L509.911 213.237L510.164 236.026L515.172 236.146C515.172 236.146 517.503 216.212 517.503 214.666C517.503 213.121 528.293 187.63 528.293 187.63L519.128 181.533H519.13Z" stroke="#333333" stroke-width="2.77387"/>
<path d="M521.425 183.204C521.425 183.204 523.613 206.625 523.613 210.574C523.613 214.522 525.388 236.619 525.388 236.619L530.409 236.589C530.409 236.589 530.772 229.854 531.31 219.945C531.394 218.393 531.201 215.262 531.31 213.655C532.091 202.1 533.636 191.223 532.897 186.91C532.778 186.216 532.555 184.402 532.12 183.944C528.832 180.478 521.425 183.204 521.425 183.204V183.204Z" stroke="#333333" stroke-width="2.77387"/>
<path d="M519.42 148.408C518.171 147.906 509.578 147.757 509.578 147.757C509.578 147.757 508.74 153.945 509.822 155.35C509.822 155.35 520.032 155.129 519.849 155.787L519.42 148.408V148.408Z" stroke="#333333" stroke-width="2.77387"/>
<path d="M537.888 146.797C540.07 147.381 540.433 155.789 540.433 155.789L547.345 154.997C547.345 154.997 546.085 146.228 542.433 142.564C538.782 138.9 529.555 141.14 526.047 143.422C522.54 145.704 524.06 148.61 524.06 148.61C524.06 148.61 535.706 146.216 537.886 146.798L537.888 146.797Z" stroke="#333333" stroke-width="2.77387"/>
<path d="M544.838 153.796C545.199 161.782 547.437 162.491 547.482 162.601C547.53 162.61 549.317 163.985 551.295 162.166L550.637 161.5C550.355 161.789 549.924 162.049 549.511 162.164C548.592 162.405 547.998 161.945 547.924 161.924C547.875 161.886 547.405 161.601 547.172 161.214C546.023 159.679 545.476 155.689 545.32 153.78L544.838 153.796V153.796Z" stroke="#333333" stroke-width="2.77387"/>
<path d="M521.597 147.96C521.597 147.96 522.566 151.767 522.677 154.859C522.787 157.951 524.92 160.531 525.197 168.272C525.474 176.012 526.58 183.128 526.58 183.128C526.58 183.128 535.168 183.726 536.859 181.904C538.549 180.081 537.816 163.51 536.145 155.455C534.474 147.399 541.823 145.203 538.004 142.563C534.184 139.925 529.218 141.713 527.115 142.428C525.013 143.146 521.535 146.254 521.597 147.96V147.96Z" stroke="#333333" stroke-width="2.77387"/>
<path d="M535.776 154.362C535.776 154.362 536.79 160.543 536.027 166.803C535.264 173.063 536.478 185.413 536.478 185.413C536.478 185.413 542.875 189.88 544.755 186.334C545.108 185.667 545.953 177.757 546.028 174.449C546.109 170.935 545.625 158.664 545.464 154.688C545.428 153.855 545.183 153.045 544.748 152.333C543.35 150.049 540.141 144.994 539.026 144.82C537.57 144.592 535.012 147.742 535.776 154.362Z" stroke="#333333" stroke-width="2.77387"/>
<path d="M545.632 158.958C544.732 159.835 539.014 165.336 536.145 165.734C536.178 165.383 536.208 165.036 536.232 164.689C538.477 164.329 543.533 159.669 545.583 157.68C545.599 158.087 545.614 158.515 545.632 158.958V158.958Z" stroke="#333333" stroke-width="2.77387"/>
<path d="M535.792 173.74C535.785 173.396 535.782 173.054 535.778 172.714C537.513 173.458 543.615 172.982 546.034 172.714C546.037 173.072 546.039 173.401 546.037 173.698C543.819 173.945 537.86 174.598 535.791 173.74H535.792Z" stroke="#333333" stroke-width="2.77387"/>
<path d="M545.458 181.732C545.423 182.056 545.386 182.372 545.351 182.679C542.94 183.161 538.296 181.102 536.065 180.135C536.043 179.771 536.02 179.393 535.997 179.006C538.07 179.906 543.338 182.131 545.458 181.732Z" stroke="#333333" stroke-width="2.77387"/>
<path d="M545.599 180.391C544.528 180.84 537.858 183.702 536.336 183.799C536.313 183.516 536.287 183.202 536.261 182.862C537.334 182.762 542.411 180.64 545.708 179.265C545.673 179.64 545.638 180.017 545.601 180.391H545.599Z" stroke="#333333" stroke-width="2.77387"/>
<path d="M538.007 183.185C536.645 183.185 535.54 182.08 535.54 180.717V170.304C535.54 168.941 536.645 167.836 538.007 167.836C539.37 167.836 540.475 168.941 540.475 170.304V180.717C540.475 182.08 539.37 183.185 538.007 183.185Z" stroke="#333333" stroke-width="2.77387"/>
<path d="M540.477 172.405H535.54V173.438H540.477V172.405Z" stroke="#333333" stroke-width="2.77387"/>
<path d="M524.709 147.929C524.709 147.929 527.315 147.69 528.356 150.16C529.398 152.631 531.62 162.804 531.146 168.507C530.673 174.207 533.275 190.293 533.275 190.293C524.193 194.996 514.562 186.227 514.562 186.227C514.562 186.227 513.555 161.599 514.437 157.571C516.284 149.15 519.832 147.792 519.832 147.792L524.709 147.927V147.929Z" stroke="#333333" stroke-width="2.77387"/>
<path d="M531.926 187.218C532.91 185.613 533.13 185.841 533.251 185.633C533.394 185.385 533.236 181.567 533.236 181.567C533.236 181.567 532.841 170.31 532.799 169.703L527.761 159.31L532.115 155.23C532.115 155.23 537.301 166.689 537.469 167.338C537.637 167.987 536.438 183.287 536.375 184.636C536.375 184.636 536.88 186.269 537.164 187.304C537.448 188.341 537.266 189.456 537.301 189.761C537.306 189.807 537.367 190.83 537.117 192.112C536.899 193.219 536.611 192.073 536.611 192.073C536.611 192.073 536.654 189.954 536.49 189.981C536.364 190.002 536.408 191.159 536.18 192.385C536.122 192.701 536.063 193.012 536.006 193.298C535.859 194.047 535.368 194.173 535.401 193.364C535.414 193.078 535.444 192.606 535.512 192.271C535.586 191.91 535.54 191.554 535.558 191.242C535.591 190.621 535.622 190.167 535.596 190.181C535.563 190.198 535.484 190.07 535.412 190.403C535.324 190.803 535.324 191.694 535.152 192.273C535.054 192.601 534.891 193.299 534.891 193.299C534.891 193.299 534.453 194.31 534.386 194.304C534.028 194.273 534.139 193.499 534.328 193.07C534.312 192.735 534.504 192.005 534.504 192.005C534.504 192.005 534.57 190.444 534.353 190.433C534.262 190.428 534.109 191.382 533.816 192.296C533.544 193.143 533.136 193.955 532.964 193.927C532.673 193.88 532.876 192.906 532.876 192.906C532.876 192.906 533.055 192.233 533.097 192.005C533.148 191.736 533.236 190.924 533.236 190.924C533.236 190.924 533.418 188.083 533.215 188.09C533.009 188.097 532.489 188.334 532.418 188.506C532.347 188.678 532.38 189.063 532.308 189.235C532.236 189.407 532.001 189.572 531.787 189.502C531.575 189.432 531.607 188.465 531.607 188.465C531.607 188.465 531.638 187.681 531.922 187.218H531.926Z" stroke="#333333" stroke-width="2.77387"/>
<path d="M534.259 158.272L528.549 162.701C528.549 162.701 526.027 160.296 524.763 157.637C523.481 154.944 525.042 147.851 526.406 148.218C529.458 149.035 534.259 158.272 534.259 158.272Z" stroke="#333333" stroke-width="2.77387"/>
<path d="M523.62 142.652L524.474 148.285C524.474 148.285 521.354 154.99 519.492 154.408C517.929 153.92 518.89 147.986 518.89 147.986C518.89 147.986 519.742 144.799 519.486 143.205C519.23 141.611 523.62 142.651 523.62 142.651V142.652Z" stroke="#333333" stroke-width="2.77387"/>
<path d="M519.487 143.207C519.231 141.613 523.62 142.653 523.62 142.653L523.69 143.119C523.562 143.431 523.404 143.7 523.215 143.903C522.235 144.959 520.702 145.592 519.378 145.64C519.511 144.78 519.592 143.859 519.487 143.205V143.207Z" stroke="#333333" stroke-width="2.77387"/>
<path d="M524.339 134.687C524.464 134.641 525.334 141.101 523.682 142.878C522.03 144.655 518.814 145.237 517.66 143.837C516.383 142.289 516.448 135.346 519.015 133.519C521.583 131.691 524.339 134.687 524.339 134.687V134.687Z" stroke="#333333" stroke-width="2.77387"/>
<path d="M519.992 130.063C521.976 130.468 523.261 131.68 523.734 132.197C524.636 132.304 525.86 132.802 527.124 134.897C528.68 137.471 527.531 140.325 525.721 141.725C523.912 143.125 523.936 144.742 523.936 144.742L523.65 143.905C523.44 143.272 523.352 142.6 523.424 141.935C523.466 141.537 523.552 141.106 523.717 140.751C524.152 139.817 522.782 139.196 522.398 138.419C522.102 137.821 522.088 136.451 521.621 135.46L521.065 134.704C521.065 134.704 519.78 133.704 518.524 133.986C517.269 134.269 517.449 129.545 519.994 130.064L519.992 130.063Z" stroke="#333333" stroke-width="2.77387"/>
<path d="M522.48 139.566C522.468 140.354 522.825 140.999 523.279 141.006C523.734 141.015 524.114 140.382 524.126 139.594C524.139 138.807 523.781 138.161 523.327 138.154C522.873 138.147 522.492 138.779 522.48 139.566V139.566Z" stroke="#333333" stroke-width="2.77387"/>
<path d="M521.451 159.869C521.332 154.961 521.637 148.219 526.315 146.305C527.987 145.604 530.03 146.393 531.578 146.968C529.677 146.704 527.887 147.435 526.961 147.954C523.11 149.901 523.14 155.482 523.278 159.827C523.629 170.753 532.001 169.595 532.001 169.595L532.195 170.323C532.195 170.323 529.051 171.356 525.039 169.376C521.84 167.797 521.451 159.871 521.451 159.871V159.869Z" stroke="#333333" stroke-width="2.77387"/>
<path d="M482.684 149.921C482.707 150.34 482.411 150.71 481.997 150.78C481.218 150.912 479.906 150.978 479.601 150.026C479.161 148.651 480.285 145.707 480.774 145.962C481.264 146.216 483.159 148.582 482.823 149.065C482.628 149.343 482.668 149.617 482.684 149.922V149.921Z" stroke="#333333" stroke-width="2.77387"/>
<path d="M573.324 215.426C573.18 213.095 572.044 209.192 572.044 209.192L576.084 182.254L565.687 178.413L562.692 178.387C562.692 178.387 561.129 184.643 561.678 192.84C561.973 197.219 566.983 235.444 566.983 235.444C566.913 236.558 566.744 238.131 566.355 238.593C565.982 239.037 565.547 239.479 565.113 239.761C564.943 239.871 564.47 240.192 564.34 240.259C562.346 241.285 561.843 241.608 561.219 242.097C560.838 242.395 560.524 242.72 560.998 242.711L569.68 242.562C569.68 242.562 570.062 242.395 570.397 241.729C570.732 241.062 570.003 239.605 569.871 238.898C569.782 238.417 569.766 237.57 569.78 236.69C569.787 236.656 573.468 217.754 573.324 215.424V215.426Z" stroke="#333333" stroke-width="2.77387"/>
<path d="M565.115 239.761C567.411 240.389 569.108 239.961 570.059 239.554C570.304 240.292 570.629 241.218 570.457 241.753C570.247 242.407 569.947 242.555 569.682 242.564C567.585 242.621 561.999 242.702 560.4 242.725C560.177 242.728 560.053 242.45 560.196 242.267C560.593 241.764 564.945 239.873 565.117 239.761H565.115Z" stroke="#333333" stroke-width="2.77387"/>
<path d="M595.347 216.248C596.457 215.803 598.807 215.513 598.894 215.736C599.001 216.001 602.032 225.522 600.995 226.979C600.371 227.856 599.564 226.534 598.305 224.645C598.672 221.986 596.085 216.313 595.347 216.248V216.248Z" stroke="#333333" stroke-width="2.77387"/>
<path d="M564.412 174.481L576.556 173.204L576.579 174.572C576.984 175.367 582.189 177.012 581.731 185.177C581.464 189.946 576.777 206.065 577.897 206.72C577.897 206.72 585.849 208.493 593.68 215.521C594.51 215.932 595.097 216.191 595.236 216.239C595.383 216.288 596.167 216.184 596.32 216.231C598.694 218.822 598.673 221.99 598.307 224.649C597.319 223.104 596.111 220.923 595.729 220.766C595.452 220.65 594.036 220.018 592.486 219.366C587.969 217.663 573.743 212.815 571.216 211.329C570.038 210.636 566.088 186.68 565.799 185.272C565.629 184.444 565.231 181.371 564.663 179.433C564.193 177.826 564.107 176.132 564.41 174.485L564.412 174.481Z" stroke="#333333" stroke-width="2.77387"/>
<path d="M566.984 235.444L569.944 235.844C570.656 232.142 573.45 217.461 573.325 215.426C573.182 213.095 572.045 209.192 572.045 209.192L576.086 182.254L565.688 178.413L562.693 178.387C562.693 178.387 561.13 184.643 561.679 192.84C561.974 197.219 566.984 235.444 566.984 235.444Z" stroke="#333333" stroke-width="2.77387"/>
<path d="M583.947 175.273C581.696 173.677 579.521 175.144 576.861 175.95C575.074 176.492 572.834 174.156 572.035 171.835C570.011 165.956 570.66 164.746 566.49 164.372C556.443 163.476 562.856 149.756 563.603 147.49C564.35 145.224 564.29 140.502 567.998 138.588C579.598 132.598 581.983 142.858 583.884 144.859C585.783 146.86 588.06 146.678 590.962 151.463C599.299 165.209 589.927 176.219 585.815 175.914C585.05 175.857 584.438 175.621 583.947 175.272V175.273Z" stroke="#333333" stroke-width="2.77387"/>
<path d="M592.599 219.41L593.455 215.319C585.698 208.458 577.9 206.718 577.9 206.718C576.779 206.063 581.467 189.944 581.733 185.175C582.189 177.01 576.986 175.365 576.581 174.57L576.558 173.202L564.414 174.479C564.111 176.126 564.197 177.82 564.666 179.427C565.233 181.365 565.633 184.438 565.803 185.266C566.092 186.675 570.041 210.631 571.22 211.324C573.747 212.811 587.973 217.659 592.49 219.36C592.527 219.376 592.564 219.392 592.601 219.408L592.599 219.41Z" stroke="#333333" stroke-width="2.77387"/>
<path d="M551.947 120.395C551.691 119.786 551.373 119.205 551 118.662L550.589 118.062C550.538 117.957 550.5 117.867 550.479 117.806C550.3 117.276 550.437 115.569 550.437 115.569L554.03 116.439L554.819 118.514C555.619 118.144 556.985 115.362 557.485 116.031C558.074 116.82 555.854 120.24 555.678 121.166C555.503 122.092 558.142 135.593 558.744 138.447C559.345 141.302 562.858 149.707 562.858 149.707L558.279 153.08C558.279 153.08 553.174 142.72 552.783 139.01C552.741 138.62 552.695 138.036 552.645 137.312L551.945 120.396L551.947 120.395Z" stroke="#333333" stroke-width="2.77387"/>
<path d="M579.189 153.514C579.189 153.514 591.308 153.816 593.97 154.035C596.631 154.252 606.286 153.449 606.66 153.407C607.033 153.363 609.508 149.174 609.918 149.624C610.329 150.073 608.542 151.7 609.094 152.123C609.646 152.546 615.586 151.6 615.507 152.039C615.36 152.86 611.895 152.756 611.898 153.153C611.902 153.549 615.525 152.93 615.77 153.589C616.016 154.247 612.286 153.858 612.137 154.152C611.988 154.445 615.597 154.984 615.227 155.596C615.027 155.929 612.03 155.04 612.044 155.494C612.058 155.947 614.245 156.98 613.976 157.339C613.708 157.701 612.259 156.231 610.992 156.213C609.724 156.196 608.815 155.533 606.79 156.089C604.764 156.645 597.821 158.597 593.541 159.223C589.164 159.863 578.994 160.335 578.994 160.335L579.187 153.516L579.189 153.514Z" stroke="#333333" stroke-width="2.77387"/>
<path d="M560.024 167.084C559.415 160.638 560.832 159.385 560.924 158.722C560.318 156.646 558.112 153.567 557.649 152.696C557.649 152.696 560.643 149.305 562.861 149.333C562.861 149.333 565.222 152.315 566.974 153.229C567 153.222 567.594 153.494 567.854 153.492C569.546 153.48 575.458 153.301 576.561 153.63L577.888 162.821C577.571 163.346 577.185 173.851 576.531 174.715C575.877 175.58 564.408 179.462 562.831 178.446C562.768 178.406 560.403 171.121 560.022 167.084H560.024Z" stroke="#333333" stroke-width="2.77387"/>
<path d="M573.483 153.841C574.574 153.32 582.539 153.338 582.539 153.338C582.539 153.338 583.595 159.559 582.704 160.88C582.704 160.88 576.97 163.008 577.171 163.587L573.483 153.841V153.841Z" stroke="#333333" stroke-width="2.77387"/>
<path d="M561.735 174.933C561.039 172.495 560.233 169.301 560.024 167.084C559.415 160.638 560.832 159.385 560.924 158.722C560.318 156.646 558.112 153.567 557.649 152.696C557.649 152.696 560.643 149.305 562.861 149.333C562.861 149.333 565.222 152.315 566.974 153.229C567 153.222 567.594 153.494 567.854 153.492C569.546 153.48 575.458 153.301 576.561 153.63L577.888 162.821C577.669 163.181 577.42 168.248 577.073 171.667C575.237 172.528 570.093 174.557 561.735 174.931V174.933Z" stroke="#333333" stroke-width="2.77387"/>
<path d="M571.713 150.126C571.713 150.126 571.101 153.295 571.223 154.546C571.346 155.797 570.757 159.826 568.111 159.84C565.464 159.854 567.607 154.716 567.858 153.492C568.107 152.266 568.167 148.474 568.167 148.474L571.714 150.126H571.713Z" stroke="#333333" stroke-width="2.77387"/>
<path opacity="0.5" d="M568.11 150.377C568.152 149.34 568.165 148.474 568.165 148.474L571.712 150.126C571.712 150.126 571.588 150.775 571.462 151.599C569.908 151.911 568.784 151.336 568.11 150.375V150.377Z" stroke="#333333" stroke-width="2.77387"/>
<path d="M573.009 141.38C573.009 141.38 574.377 142.139 574.876 143.783C575.376 145.426 574.808 149.669 571.276 150.693C567.744 151.718 566.215 148.357 566.941 145.731C567.669 143.104 569.251 139.778 573.009 141.38V141.38Z" stroke="#333333" stroke-width="2.77387"/>
<path d="M566.499 144.713C566.567 145.418 566.956 145.958 567.368 145.918C567.779 145.878 568.056 145.273 567.988 144.567C567.919 143.862 567.53 143.322 567.118 143.362C566.707 143.403 566.43 144.008 566.499 144.713Z" stroke="#333333" stroke-width="2.77387"/>
<path d="M572.595 141.165C572.595 141.165 573.235 145.897 574.766 146.752C576.295 147.606 575.655 149.705 575.655 149.705C575.655 149.705 577.042 144.829 575.832 143.265C574.622 141.698 572.595 141.165 572.595 141.165Z" stroke="#333333" stroke-width="2.77387"/>
<path d="M573.859 147.43C573.444 148.047 573.446 148.773 573.863 149.054C574.28 149.335 574.954 149.063 575.369 148.445C575.785 147.828 575.783 147.102 575.366 146.821C574.948 146.541 574.275 146.814 573.859 147.43Z" stroke="#333333" stroke-width="2.77387"/>
<path d="M571.264 148.14L568.442 147.179C568.442 147.179 568.135 148.293 569.365 148.752C570.862 149.312 571.264 148.14 571.264 148.14V148.14Z" stroke="#333333" stroke-width="2.77387"/>
<path d="M532.264 120.351L579.639 117.179L578.228 96.106L530.854 99.2781L532.264 120.351Z" stroke="#333333" stroke-width="2.77387"/>
<path d="M558.709 113.811C558.441 113.88 558.213 114.206 558.071 114.409C557.675 114.983 557.408 116.063 557.324 115.999C557.324 115.999 554.709 118.063 553.162 118.908C553.129 119.072 553.078 119.256 553.01 119.45L555.854 120.598C555.924 120.449 555.984 120.32 556.028 120.226C556.342 119.556 556.745 119.047 557.098 118.635C557.45 118.224 558.055 117.514 558.155 117.109C558.218 116.855 558.411 116.172 558.515 115.807C558.618 115.443 558.755 115.02 558.786 114.822C558.806 114.701 558.948 114.466 559.056 114.301C559.218 114.055 558.993 113.736 558.707 113.81L558.709 113.811Z" stroke="#333333" stroke-width="2.77387"/>
<path d="M657.13 227.768H609.022C607.545 227.768 606.348 228.966 606.348 230.442V238.841C606.348 240.317 607.545 241.515 609.022 241.515H657.13C658.607 241.515 659.805 240.317 659.805 238.841V230.442C659.805 228.966 658.607 227.768 657.13 227.768V227.768Z" stroke="#333333" stroke-width="2.77387"/>
<path d="M659.803 234.64V230.951C659.803 229.192 658.712 227.766 657.367 227.766H608.782C607.436 227.766 606.346 229.192 606.346 230.951V234.64H659.801H659.803Z" stroke="#333333" stroke-width="2.77387"/>
<path d="M614.953 232.642H613.138V237.037H614.953V232.642Z" stroke="#333333" stroke-width="2.77387"/>
<path d="M653.012 232.642H651.197V237.037H653.012V232.642Z" stroke="#333333" stroke-width="2.77387"/>
<path d="M638.578 234.027H626.123V235.652H638.578V234.027Z" stroke="#333333" stroke-width="2.77387"/>
<path d="M652.105 220.892V217.204C652.105 215.445 651.329 214.019 650.371 214.019H615.778C614.821 214.019 614.044 215.445 614.044 217.204V220.892H652.105Z" stroke="#333333" stroke-width="2.77387"/>
<path d="M614.045 220.892V224.838C614.045 226.454 615.355 227.764 616.97 227.764H649.179C650.795 227.764 652.105 226.454 652.105 224.838V220.892H614.043H614.045Z" stroke="#333333" stroke-width="2.77387"/>
<path d="M619.139 218.895H617.847V223.29H619.139V218.895Z" stroke="#333333" stroke-width="2.77387"/>
<path d="M647.271 218.895H645.979V223.29H647.271V218.895Z" stroke="#333333" stroke-width="2.77387"/>
<path d="M636.992 220.282H628.125V221.906H636.992V220.282Z" stroke="#333333" stroke-width="2.77387"/>
</g>
</svg>
